
 Brotherhood.aka.Broderskab.2009.DVDRiP.XviD.OPTIONAL-MULTI_SUB-Zen_Bud


Format                           : AVI
Format/Info                      : Audio Video Interleave
File size                        : 706 MiB
Duration                         : 1h 36mn
Overall bit rate                 : 1 018 Kbps

Video

Format                           : MPEG-4 Visual
Codec ID/Hint                    : XviD
Duration                         : 1h 36mn
Bit rate                         : 877 Kbps
Width                            : 718 pixels
Height                           : 436 pixels
Display aspect ratio             : 2.35:1
Stream size                      : 608 MiB (86%)
Writing library                  : XviD 1.1.2 (UTC 2006-11-01)

Audio

Format                           : MPEG Audio
Codec ID/Hint                    : MP3
Duration                         : 1h 36mn
Bit rate                         : 128 Kbps
Channel(s)                       : 2 channels
Sampling rate                    : 48.0 KHz
Stream size                      : 88.8 MiB (13%)
Language                         : Danish

Text #1
Language                         : Danish

Text #2
Language                         : Swedish

Text #3
Language                         : Norwegian

Text #4
Language                         : Finnish

Text #5
Language                         : English
 
http://en.wikipedia.org/wiki/Brotherhood_%282009_film%29